<svg width="31" height="26" viewBox="0 0 24 24" fill="none" xmlns="http://www.w3.org/2000/svg">
  <path d="M12 2.163c3.204 0 3.584.012 4.849.07 1.366.062 2.633.331 3.608 1.307.975.976 1.245 2.242 1.307 3.608.058 1.265.07 1.645.07 4.849s-.012 3.584-.07 4.849c-.062 1.366-.331 2.633-1.307 3.608-.976.975-2.242 1.245-3.608 1.307-1.265.058-1.645.07-4.849.07s-3.584-.012-4.849-.07c-1.366-.062-2.633-.331-3.608-1.307-.975-.976-1.245-2.242-1.307-3.608-.058-1.265-.07-1.645-.07-4.849s.012-3.584.07-4.849c.062-1.366.331-2.633 1.307-3.608C4.518 2.495 5.784 2.225 7.15 2.163 8.416 2.105 8.796 2.093 12 2.093zm0-2.163C8.745 0 8.333.014 7.053.072 5.73.131 4.434.405 3.359 1.481 2.283 2.557 2.009 3.852 1.95 5.175 1.892 6.455 1.878 6.867 1.878 12.001c0 5.134.014 5.546.072 6.826.059 1.323.332 2.618 1.408 3.694 1.075 1.075 2.371 1.349 3.694 1.408 1.28.059 1.692.073 6.826.073s5.546-.014 6.826-.073c1.323-.059 2.618-.332 3.694-1.408 1.075-1.075 1.349-2.371 1.408-3.694.059-1.28.073-1.692.073-6.826s-.014-5.546-.073-6.826c-.059-1.323-.332-2.618-1.408-3.694C20.882.405 19.587.131 18.263.072 16.984.014 16.572 0 12 0zm0 5.838a6.163 6.163 0 1 0 0 12.326 6.163 6.163 0 0 0 0-12.326zm0 10.163a3.999 3.999 0 1 1 0-8 3.999 3.999 0 0 1 0 8zm7.2-11.062a1.44 1.44 0 1 0-2.88 0 1.44 1.44 0 0 0 2.88 0z" fill="white"/>
</svg>
